<?xml version="1.0" encoding="UTF-8" standalone="no"?>
<!-- Created with Inkscape (http://www.inkscape.org/) -->

<svg
   xmlns:dc="http://purl.org/dc/elements/1.1/"
   xmlns:cc="http://creativecommons.org/ns#"
   xmlns:rdf="http://www.w3.org/1999/02/22-rdf-syntax-ns#"
   xmlns:svg="http://www.w3.org/2000/svg"
   xmlns="http://www.w3.org/2000/svg"
   xmlns:sodipodi="http://sodipodi.sourceforge.net/DTD/sodipodi-0.dtd"
   xmlns:inkscape="http://www.inkscape.org/namespaces/inkscape"
   width="1920"
   height="1080"
   id="svg2"
   version="1.1"
   inkscape:version="0.48.5 r10040"
   sodipodi:docname="layout.svg">
  <defs
     id="defs4">
    <clipPath
       clipPathUnits="userSpaceOnUse"
       id="clipPath4048">
      <path
         sodipodi:type="arc"
         style="color:#000000;fill:#800080;fill-opacity:0.49803922;stroke:none;stroke-width:4;marker:none;visibility:visible;display:inline;overflow:visible;enable-background:accumulate"
         id="path4050"
         sodipodi:cx="38"
         sodipodi:cy="1033"
         sodipodi:rx="200"
         sodipodi:ry="200"
         d="M 238,1033 A 200,200 0 0 1 89.763817,1226.1852 L 38,1033 z"
         transform="matrix(0.02100591,-0.15958233,0.15958233,0.02100591,-152.00637,2.7245916)"
         sodipodi:start="0"
         sodipodi:end="1.3089969"
         inkscape:transform-center-x="-99.144112"
         inkscape:transform-center-y="-99.144753" />
    </clipPath>
    <clipPath
       clipPathUnits="userSpaceOnUse"
       id="clipPath4052">
      <path
         sodipodi:type="arc"
         style="color:#000000;fill:#800080;fill-opacity:0.49803922;stroke:none;stroke-width:4;marker:none;visibility:visible;display:inline;overflow:visible;enable-background:accumulate"
         id="path4054"
         sodipodi:cx="38"
         sodipodi:cy="1033"
         sodipodi:rx="200"
         sodipodi:ry="200"
         d="M 238,1033 A 200,200 0 0 1 89.763817,1226.1852 L 38,1033 z"
         transform="matrix(0.03194649,-0.24269813,0.24269813,0.03194649,-239.11907,-4.5803066)"
         sodipodi:start="0"
         sodipodi:end="1.3089969"
         inkscape:transform-center-x="-99.144112"
         inkscape:transform-center-y="-99.144753" />
    </clipPath>
    <clipPath
       clipPathUnits="userSpaceOnUse"
       id="clipPath4131">
      <path
         inkscape:transform-center-y="-99.144753"
         inkscape:transform-center-x="-99.144112"
         sodipodi:end="1.3089969"
         sodipodi:start="0"
         transform="matrix(0.01002243,-0.07614059,0.07614059,0.01002243,-63.784089,9.3285627)"
         d="M 238,1033 A 200,200 0 0 1 89.763817,1226.1852 L 38,1033 z"
         sodipodi:ry="200"
         sodipodi:rx="200"
         sodipodi:cy="1033"
         sodipodi:cx="38"
         id="path4133"
         style="color:#000000;fill:#800080;fill-opacity:0.49803922;stroke:none;stroke-width:4;marker:none;visibility:visible;display:inline;overflow:visible;enable-background:accumulate"
         sodipodi:type="arc" />
    </clipPath>
    <clipPath
       clipPathUnits="userSpaceOnUse"
       id="clipPath4135">
      <path
         inkscape:transform-center-y="-99.144753"
         inkscape:transform-center-x="-99.144112"
         sodipodi:end="1.3089969"
         sodipodi:start="0"
         transform="matrix(0.01197993,-0.0910118,0.0910118,0.01197993,-79.220432,7.8790635)"
         d="M 238,1033 A 200,200 0 0 1 89.763817,1226.1852 L 38,1033 z"
         sodipodi:ry="200"
         sodipodi:rx="200"
         sodipodi:cy="1033"
         sodipodi:cx="38"
         id="path4137"
         style="color:#000000;fill:#800080;fill-opacity:0.49803922;stroke:none;stroke-width:4;marker:none;visibility:visible;display:inline;overflow:visible;enable-background:accumulate"
         sodipodi:type="arc" />
    </clipPath>
    <clipPath
       clipPathUnits="userSpaceOnUse"
       id="clipPath4139">
      <path
         inkscape:transform-center-y="-99.144753"
         inkscape:transform-center-x="-99.144112"
         sodipodi:end="1.3089969"
         sodipodi:start="0"
         transform="matrix(0.01299518,-0.09872466,0.09872466,0.01299518,-87.226401,7.1272892)"
         d="M 238,1033 A 200,200 0 0 1 89.763817,1226.1852 L 38,1033 z"
         sodipodi:ry="200"
         sodipodi:rx="200"
         sodipodi:cy="1033"
         sodipodi:cx="38"
         id="path4141"
         style="color:#000000;fill:#800080;fill-opacity:0.49803922;stroke:none;stroke-width:4;marker:none;visibility:visible;display:inline;overflow:visible;enable-background:accumulate"
         sodipodi:type="arc" />
    </clipPath>
    <clipPath
       clipPathUnits="userSpaceOnUse"
       id="clipPath4143">
      <path
         inkscape:transform-center-y="-99.144753"
         inkscape:transform-center-x="-99.144112"
         sodipodi:end="1.3089969"
         sodipodi:start="0"
         transform="matrix(0.01648851,-0.12526355,0.12526355,0.01648851,-114.77382,4.5405399)"
         d="M 238,1033 A 200,200 0 0 1 89.763817,1226.1852 L 38,1033 z"
         sodipodi:ry="200"
         sodipodi:rx="200"
         sodipodi:cy="1033"
         sodipodi:cx="38"
         id="path4145"
         style="color:#000000;fill:#800080;fill-opacity:0.49803922;stroke:none;stroke-width:4;marker:none;visibility:visible;display:inline;overflow:visible;enable-background:accumulate"
         sodipodi:type="arc" />
    </clipPath>
    <clipPath
       clipPathUnits="userSpaceOnUse"
       id="clipPath4147">
      <path
         inkscape:transform-center-y="-99.144753"
         inkscape:transform-center-x="-99.144112"
         sodipodi:end="1.3089969"
         sodipodi:start="0"
         transform="matrix(0.01847508,-0.14035554,0.14035554,0.01847508,-130.43934,3.0695204)"
         d="M 238,1033 A 200,200 0 0 1 89.763817,1226.1852 L 38,1033 z"
         sodipodi:ry="200"
         sodipodi:rx="200"
         sodipodi:cy="1033"
         sodipodi:cx="38"
         id="path4149"
         style="color:#000000;fill:#800080;fill-opacity:0.49803922;stroke:none;stroke-width:4;marker:none;visibility:visible;display:inline;overflow:visible;enable-background:accumulate"
         sodipodi:type="arc" />
    </clipPath>
    <clipPath
       clipPathUnits="userSpaceOnUse"
       id="clipPath4151">
      <path
         inkscape:transform-center-y="-99.144753"
         inkscape:transform-center-x="-99.144112"
         sodipodi:end="1.3089969"
         sodipodi:start="0"
         transform="matrix(0.02643848,-0.20085363,0.20085363,0.02643848,-193.23647,-2.8272364)"
         d="M 238,1033 A 200,200 0 0 1 89.763817,1226.1852 L 38,1033 z"
         sodipodi:ry="200"
         sodipodi:rx="200"
         sodipodi:cy="1033"
         sodipodi:cx="38"
         id="path4153"
         style="color:#000000;fill:#800080;fill-opacity:0.49803922;stroke:none;stroke-width:4;marker:none;visibility:visible;display:inline;overflow:visible;enable-background:accumulate"
         sodipodi:type="arc" />
    </clipPath>
    <clipPath
       clipPathUnits="userSpaceOnUse"
       id="clipPath4155">
      <path
         inkscape:transform-center-y="-99.144753"
         inkscape:transform-center-x="-99.144112"
         sodipodi:end="1.3089969"
         sodipodi:start="0"
         transform="matrix(0.03194649,-0.24269813,0.24269813,0.03194649,-236.67115,-6.9058275)"
         d="M 238,1033 A 200,200 0 0 1 89.763817,1226.1852 L 38,1033 z"
         sodipodi:ry="200"
         sodipodi:rx="200"
         sodipodi:cy="1033"
         sodipodi:cx="38"
         id="path4157"
         style="color:#000000;fill:#800080;fill-opacity:0.49803922;stroke:none;stroke-width:4;marker:none;visibility:visible;display:inline;overflow:visible;enable-background:accumulate"
         sodipodi:type="arc" />
    </clipPath>
    <clipPath
       clipPathUnits="userSpaceOnUse"
       id="clipPath4159">
      <path
         inkscape:transform-center-y="-99.144753"
         inkscape:transform-center-x="-99.144112"
         sodipodi:end="1.3089969"
         sodipodi:start="0"
         transform="matrix(0.06667094,-0.50650045,0.50650045,0.06667094,-510.49849,-32.618664)"
         d="M 238,1033 A 200,200 0 0 1 89.763817,1226.1852 L 38,1033 z"
         sodipodi:ry="200"
         sodipodi:rx="200"
         sodipodi:cy="1033"
         sodipodi:cx="38"
         id="path4161"
         style="color:#000000;fill:#800080;fill-opacity:0.49803922;stroke:none;stroke-width:4;marker:none;visibility:visible;display:inline;overflow:visible;enable-background:accumulate"
         sodipodi:type="arc" />
    </clipPath>
  </defs>
  <sodipodi:namedview
     id="base"
     pagecolor="#ffffff"
     bordercolor="#666666"
     borderopacity="1.0"
     inkscape:pageopacity="0.0"
     inkscape:pageshadow="2"
     inkscape:zoom="5.6568542"
     inkscape:cx="82.717618"
     inkscape:cy="68.487423"
     inkscape:document-units="px"
     inkscape:current-layer="g3904"
     showgrid="false"
     inkscape:snap-bbox="true"
     inkscape:snap-nodes="false"
     inkscape:window-width="1920"
     inkscape:window-height="1145"
     inkscape:window-x="-2"
     inkscape:window-y="-3"
     inkscape:window-maximized="1" />
  <metadata
     id="metadata7">
    <rdf:RDF>
      <cc:Work
         rdf:about="">
        <dc:format>image/svg+xml</dc:format>
        <dc:type
           rdf:resource="http://purl.org/dc/dcmitype/StillImage" />
        <dc:title />
      </cc:Work>
    </rdf:RDF>
  </metadata>
  <g
     inkscape:groupmode="layer"
     id="layer2"
     inkscape:label="Background"
     style="display:inline">
    <path
       sodipodi:type="arc"
       style="color:#000000;fill:#7f7f7f;fill-opacity:0.49803922;stroke:none;stroke-width:3.8766458;marker:none;visibility:visible;display:inline;overflow:visible;enable-background:accumulate"
       id="path3808"
       sodipodi:cx="-1"
       sodipodi:cy="1082"
       sodipodi:rx="200"
       sodipodi:ry="200"
       d="M 199,1082 A 200,200 0 0 1 -0.99999464,1282 L -1,1082 z"
       transform="matrix(0,-1,1,0,-1082,1078.9999)"
       sodipodi:start="0"
       sodipodi:end="1.5707963" />
  </g>
  <g
     inkscape:label="Ring template"
     inkscape:groupmode="layer"
     id="layer1"
     transform="translate(0,27.637817)"
     style="opacity:0.4618474;display:none">
    <path
       sodipodi:type="arc"
       style="color:#000000;fill:#ffffff;fill-opacity:1;stroke:#000000;stroke-width:11.75000095;stroke-miterlimit:4;stroke-opacity:1;stroke-dasharray:none;marker:none;visibility:visible;display:inline;overflow:visible;enable-background:accumulate"
       id="path3763"
       sodipodi:cx="15.25"
       sodipodi:cy="16.749998"
       sodipodi:rx="11.75"
       sodipodi:ry="11.75"
       d="m 27,16.749998 a 11.75,11.75 0 1 1 -23.5,0 11.75,11.75 0 1 1 23.5,0 z"
       transform="matrix(0.34042553,0,0,0.34042553,4.8085107,1036.6601)" />
    <path
       transform="matrix(1.9574468,0,0,1.9574468,-19.851064,1009.575)"
       d="m 27,16.749998 a 11.75,11.75 0 1 1 -23.5,0 11.75,11.75 0 1 1 23.5,0 z"
       sodipodi:ry="11.75"
       sodipodi:rx="11.75"
       sodipodi:cy="16.749998"
       sodipodi:cx="15.25"
       id="path3788"
       style="color:#000000;fill:none;stroke:#000000;stroke-width:2.04347849;stroke-miterlimit:4;stroke-opacity:1;stroke-dasharray:none;marker:none;visibility:visible;display:inline;overflow:visible;enable-background:accumulate"
       sodipodi:type="arc" />
    <path
       sodipodi:type="arc"
       style="color:#000000;fill:none;stroke:#000000;stroke-width:0.97916675;stroke-miterlimit:4;stroke-opacity:1;stroke-dasharray:none;marker:none;visibility:visible;display:inline;overflow:visible;enable-background:accumulate"
       id="path3790"
       sodipodi:cx="15.25"
       sodipodi:cy="16.749998"
       sodipodi:rx="11.75"
       sodipodi:ry="11.75"
       d="m 27,16.749998 a 11.75,11.75 0 1 1 -23.5,0 11.75,11.75 0 1 1 23.5,0 z"
       transform="matrix(4.0851064,0,0,4.0851064,-52.297872,973.93674)" />
    <path
       sodipodi:type="arc"
       style="color:#000000;fill:#800080;fill-opacity:0.49803922;stroke:none;stroke-width:4;marker:none;visibility:visible;display:inline;overflow:visible;enable-background:accumulate"
       id="path4008"
       sodipodi:cx="38"
       sodipodi:cy="1033"
       sodipodi:rx="200"
       sodipodi:ry="200"
       d="M 238,1033 A 200,200 0 0 1 89.763817,1226.1852 L 38,1033 z"
       transform="matrix(0.13050482,-0.99144768,0.99144768,0.13050482,-1019.1247,945.7257)"
       sodipodi:start="0"
       sodipodi:end="1.3089969"
       inkscape:transform-center-x="-99.144112"
       inkscape:transform-center-y="-99.144753" />
    <path
       transform="matrix(4.9361702,0,0,4.9361702,-65.276595,959.68142)"
       d="m 27,16.749998 a 11.75,11.75 0 1 1 -23.5,0 11.75,11.75 0 1 1 23.5,0 z"
       sodipodi:ry="11.75"
       sodipodi:rx="11.75"
       sodipodi:cy="16.749998"
       sodipodi:cx="15.25"
       id="path4061"
       style="color:#000000;fill:none;stroke:#000000;stroke-width:0.81034487;stroke-miterlimit:4;stroke-opacity:1;stroke-dasharray:none;marker:none;visibility:visible;display:inline;overflow:visible;enable-background:accumulate"
       sodipodi:type="arc" />
    <path
       sodipodi:type="arc"
       style="color:#000000;fill:none;stroke:#000000;stroke-width:0.56626511;stroke-miterlimit:4;stroke-opacity:1;stroke-dasharray:none;marker:none;visibility:visible;display:inline;overflow:visible;enable-background:accumulate"
       id="path4063"
       sodipodi:cx="15.25"
       sodipodi:cy="16.749998"
       sodipodi:rx="11.75"
       sodipodi:ry="11.75"
       d="m 27,16.749998 a 11.75,11.75 0 1 1 -23.5,0 11.75,11.75 0 1 1 23.5,0 z"
       transform="matrix(7.0638298,0,0,7.0638298,-97.723404,924.04313)" />
    <path
       transform="matrix(7.9148936,0,0,7.9148936,-110.70213,909.78781)"
       d="m 27,16.749998 a 11.75,11.75 0 1 1 -23.5,0 11.75,11.75 0 1 1 23.5,0 z"
       sodipodi:ry="11.75"
       sodipodi:rx="11.75"
       sodipodi:cy="16.749998"
       sodipodi:cx="15.25"
       id="path4065"
       style="color:#000000;fill:none;stroke:#000000;stroke-width:0.5053764;stroke-miterlimit:4;stroke-opacity:1;stroke-dasharray:none;marker:none;visibility:visible;display:inline;overflow:visible;enable-background:accumulate"
       sodipodi:type="arc" />
    <path
       sodipodi:type="arc"
       style="color:#000000;fill:none;stroke:#000000;stroke-width:0.39830512;stroke-miterlimit:4;stroke-opacity:1;stroke-dasharray:none;marker:none;visibility:visible;display:inline;overflow:visible;enable-background:accumulate"
       id="path4067"
       sodipodi:cx="15.25"
       sodipodi:cy="16.749998"
       sodipodi:rx="11.75"
       sodipodi:ry="11.75"
       d="m 27,16.749998 a 11.75,11.75 0 1 1 -23.5,0 11.75,11.75 0 1 1 23.5,0 z"
       transform="matrix(10.042553,0,0,10.042553,-143.14894,874.14952)" />
    <path
       transform="matrix(10.893617,0,0,10.893617,-156.12766,859.8942)"
       d="m 27,16.749998 a 11.75,11.75 0 1 1 -23.5,0 11.75,11.75 0 1 1 23.5,0 z"
       sodipodi:ry="11.75"
       sodipodi:rx="11.75"
       sodipodi:cy="16.749998"
       sodipodi:cx="15.25"
       id="path4069"
       style="color:#000000;fill:none;stroke:#000000;stroke-width:0.36718753;stroke-miterlimit:4;stroke-opacity:1;stroke-dasharray:none;marker:none;visibility:visible;display:inline;overflow:visible;enable-background:accumulate"
       sodipodi:type="arc" />
    <path
       sodipodi:type="arc"
       style="color:#000000;fill:none;stroke:#000000;stroke-width:0.30718955;stroke-miterlimit:4;stroke-opacity:1;stroke-dasharray:none;marker:none;visibility:visible;display:inline;overflow:visible;enable-background:accumulate"
       id="path4071"
       sodipodi:cx="15.25"
       sodipodi:cy="16.749998"
       sodipodi:rx="11.75"
       sodipodi:ry="11.75"
       d="m 27,16.749998 a 11.75,11.75 0 1 1 -23.5,0 11.75,11.75 0 1 1 23.5,0 z"
       transform="matrix(13.021276,0,0,13.021276,-188.57447,824.25591)" />
  </g>
  <g
     style="display:inline"
     transform="translate(0,27.637817)"
     id="g4073"
     inkscape:groupmode="layer"
     inkscape:label="Segments empty">
    <path
       transform="matrix(0.34042553,0,0,0.34042553,8.8085108,1032.6601)"
       d="m 27,16.749998 a 11.75,11.75 0 1 1 -23.5,0 11.75,11.75 0 1 1 23.5,0 z"
       sodipodi:ry="11.75"
       sodipodi:rx="11.75"
       sodipodi:cy="16.749998"
       sodipodi:cx="15.25"
       id="path4075"
       style="color:#000000;fill:#000000;fill-opacity:0.25098039;stroke:#000000;stroke-width:5.875;stroke-miterlimit:4;stroke-opacity:1;stroke-dasharray:none;marker:none;visibility:visible;display:inline;overflow:visible;enable-background:accumulate"
       sodipodi:type="arc" />
    <path
       id="path4079"
       transform="matrix(4.0851064,0,0,4.0851064,-52.297872,973.93674)"
       style="color:#000000;fill:#000000;fill-opacity:0.25098039;stroke:#000000;stroke-width:0.48958334;stroke-miterlimit:4;stroke-opacity:1;stroke-dasharray:none;marker:none;visibility:visible;display:inline;overflow:visible;enable-background:accumulate"
       d="m 16.795247,5.1070945 c 5.540779,0.6425781 9.363282,3.9601981 10.112956,10.2200515 l -6.058594,0.810865 c -0.428385,-3.032982 -2.015847,-4.605144 -4.849935,-4.972332 z"
       inkscape:connector-curvature="0"
       sodipodi:nodetypes="ccccc"
       mask="none" />
    <path
       id="path4085"
       transform="matrix(7.0638298,0,0,7.0638298,-97.723404,924.04313)"
       style="color:#000000;fill:#000000;fill-opacity:0.25098039;stroke:#000000;stroke-width:0.28313252;stroke-miterlimit:4;stroke-opacity:1;stroke-dasharray:none;marker:none;visibility:visible;display:inline;overflow:visible;enable-background:accumulate"
       d="m 16.329443,8.6276331 c 3.87998,0.5308735 6.476656,2.5966769 7.060617,7.1137039 l 3.503766,-0.442393 C 25.920557,9.0750345 23.101921,6.0617451 16.789533,5.1238686 z"
       inkscape:connector-curvature="0"
       sodipodi:nodetypes="ccccc" />
    <path
       id="path4089"
       transform="matrix(10.042553,0,0,10.042553,-143.14894,874.14952)"
       style="color:#000000;fill:#000000;fill-opacity:0.25098039;stroke:#000000;stroke-width:0.19915254;stroke-miterlimit:4;stroke-opacity:1;stroke-dasharray:none;marker:none;visibility:visible;display:inline;overflow:visible;enable-background:accumulate"
       d="M 26.911986,15.262564 C 26.067053,9.1252737 22.804313,5.8625336 16.790242,5.0968133 L 16.464591,7.568617 c 4.841642,0.6248982 7.359495,3.019532 7.975592,8.037201 z"
       inkscape:connector-curvature="0"
       sodipodi:nodetypes="ccccc" />
    <path
       id="path4093"
       transform="matrix(13.021276,0,0,13.021276,-188.57447,824.25591)"
       style="color:#000000;fill:#000000;fill-opacity:0.25098039;stroke:#000000;stroke-width:0.15359478;stroke-miterlimit:4;stroke-opacity:1;stroke-dasharray:none;marker:none;visibility:visible;display:inline;overflow:visible;enable-background:accumulate"
       d="M 26.89818,15.256639 C 25.995377,8.8894771 23.382041,5.9706813 16.790875,5.101818 l -0.257943,1.9063587 c 5.381479,0.6177075 7.712212,3.2878393 8.472467,8.4928303 z"
       inkscape:connector-curvature="0"
       sodipodi:nodetypes="ccccc" />
  </g>
  <g
     inkscape:label="Segments full"
     inkscape:groupmode="layer"
     id="g3904"
     transform="translate(0,27.637817)"
     style="display:inline">
    <path
       sodipodi:type="arc"
       style="color:#000000;fill:#ffffff;fill-opacity:1;stroke:#000000;stroke-width:5.875;stroke-miterlimit:4;stroke-opacity:1;stroke-dasharray:none;marker:none;visibility:visible;display:inline;overflow:visible;enable-background:accumulate"
       id="path3906"
       sodipodi:cx="15.25"
       sodipodi:cy="16.749998"
       sodipodi:rx="11.75"
       sodipodi:ry="11.75"
       d="m 27,16.749998 a 11.75,11.75 0 1 1 -23.5,0 11.75,11.75 0 1 1 23.5,0 z"
       transform="matrix(0.34042553,0,0,0.34042553,8.8085108,1032.6601)" />
    <path
       mask="none"
       sodipodi:nodetypes="ccccc"
       inkscape:connector-curvature="0"
       d="m 16.795247,5.1070945 c 5.540779,0.6425781 9.363282,3.9601981 10.112956,10.2200515 l -6.058594,0.810865 c -0.428385,-3.032982 -2.015847,-4.605144 -4.849935,-4.972332 z"
       style="color:#000000;fill:#ffffff;fill-opacity:1;stroke:#000000;stroke-width:0.48958334;stroke-miterlimit:4;stroke-opacity:1;stroke-dasharray:none;marker:none;visibility:visible;display:inline;overflow:visible;enable-background:accumulate"
       transform="matrix(4.0851064,0,0,4.0851064,-52.297872,973.93674)"
       id="path3908" />
    <path
       sodipodi:nodetypes="ccccc"
       inkscape:connector-curvature="0"
       d="m 16.329443,8.6276331 c 3.87998,0.5308735 6.476656,2.5966769 7.060617,7.1137039 l 3.503766,-0.442393 C 25.920557,9.0750345 23.101921,6.0617451 16.789533,5.1238686 z"
       style="color:#000000;fill:#ffffff;fill-opacity:1;stroke:#000000;stroke-width:0.28313252;stroke-miterlimit:4;stroke-opacity:1;stroke-dasharray:none;marker:none;visibility:visible;display:inline;overflow:visible;enable-background:accumulate"
       transform="matrix(7.0638298,0,0,7.0638298,-97.723404,924.04313)"
       id="path3910" />
    <path
       sodipodi:nodetypes="ccccc"
       inkscape:connector-curvature="0"
       d="M 26.911986,15.262564 C 26.067053,9.1252737 22.804313,5.8625336 16.790242,5.0968133 L 16.464591,7.568617 c 4.841642,0.6248982 7.359495,3.019532 7.975592,8.037201 z"
       style="color:#000000;fill:#ffffff;fill-opacity:1;stroke:#000000;stroke-width:0.19915254;stroke-miterlimit:4;stroke-opacity:1;stroke-dasharray:none;marker:none;visibility:visible;display:inline;overflow:visible;enable-background:accumulate"
       transform="matrix(10.042553,0,0,10.042553,-143.14894,874.14952)"
       id="path3912" />
    <path
       sodipodi:nodetypes="ccccc"
       inkscape:connector-curvature="0"
       d="M 26.89818,15.256639 C 25.995377,8.8894771 23.382041,5.9706813 16.790875,5.101818 l -0.257943,1.9063587 c 5.381479,0.6177075 7.712212,3.2878393 8.472467,8.4928303 z"
       style="color:#000000;fill:#ffffff;fill-opacity:1;stroke:#000000;stroke-width:0.15359478;stroke-miterlimit:4;stroke-opacity:1;stroke-dasharray:none;marker:none;visibility:visible;display:inline;overflow:visible;enable-background:accumulate"
       transform="matrix(13.021276,0,0,13.021276,-188.57447,824.25591)"
       id="path3914" />
  </g>
</svg>
